<svg xmlns="http://www.w3.org/2000/svg" viewBox="0 0 96 96" shape-rendering="crispEdges"><polygon points="41.7,15.1 45.9,17.1 41.7,19.2 37.5,17.1" fill="#ffb5bc"/><polygon points="45.9,39.5 41.7,41.6 41.7,19.2 45.9,17.1" fill="#b0767b"/><polygon points="37.5,39.5 41.7,41.6 41.7,19.2 37.5,17.1" fill="#e1979d"/><polygon points="37.5,18.6 50.1,24.9 45.9,27.0 33.3,20.7" fill="#ffb5bc"/><polygon points="50.1,30.5 45.9,32.6 45.9,27.0 50.1,24.9" fill="#b0767b"/><polygon points="33.3,26.3 45.9,32.6 45.9,27.0 33.3,20.7" fill="#e1979d"/><polygon points="48.0,53.2 56.4,57.4 48.0,61.6 39.6,57.4" fill="#ffb5bc"/><polygon points="56.4,68.6 48.0,72.8 48.0,61.6 56.4,57.4" fill="#b0767b"/><polygon points="39.6,68.6 48.0,72.8 48.0,61.6 39.6,57.4" fill="#e1979d"/><polygon points="50.1,24.2 75.3,36.8 54.3,47.3 29.1,34.7" fill="#9cede1"/><polygon points="75.3,59.2 54.3,69.7 54.3,47.3 75.3,36.8" fill="#669b93"/><polygon points="29.1,57.1 54.3,69.7 54.3,47.3 29.1,34.7" fill="#82c6bc"/><polygon points="52.2,26.6 64.8,32.9 52.2,39.2 39.6,32.9" fill="#ffcf6f"/><polygon points="64.8,38.5 52.2,44.8 52.2,39.2 64.8,32.9" fill="#ac8848"/><polygon points="39.6,38.5 52.2,44.8 52.2,39.2 39.6,32.9" fill="#dbad5c"/><polygon points="33.3,60.5 41.7,64.8 33.3,69.0 24.9,64.8" fill="#ffb5bc"/><polygon points="41.7,76.0 33.3,80.2 33.3,69.0 41.7,64.8" fill="#b0767b"/><polygon points="24.9,76.0 33.3,80.2 33.3,69.0 24.9,64.8" fill="#e1979d"/><polygon points="62.7,60.5 71.1,64.8 62.7,69.0 54.3,64.8" fill="#ffb5bc"/><polygon points="71.1,76.0 62.7,80.2 62.7,69.0 71.1,64.8" fill="#b0767b"/><polygon points="54.3,76.0 62.7,80.2 62.7,69.0 54.3,64.8" fill="#e1979d"/><polygon points="52.2,25.2 60.6,29.4 56.4,31.5 48.0,27.3" fill="#ffcf6f"/><polygon points="60.6,35.0 56.4,37.1 56.4,31.5 60.6,29.4" fill="#ac8848"/><polygon points="48.0,32.9 56.4,37.1 56.4,31.5 48.0,27.3" fill="#dbad5c"/><polygon points="45.9,41.0 75.3,55.6 50.1,68.2 20.7,53.6" fill="#ffb5bc"/><polygon points="75.3,72.5 50.1,85.1 50.1,68.2 75.3,55.6" fill="#b0767b"/><polygon points="20.7,70.4 50.1,85.1 50.1,68.2 20.7,53.6" fill="#e1979d"/><polygon points="64.8,26.6 69.0,28.7 64.8,30.8 60.6,28.7" fill="#ffb5bc"/><polygon points="69.0,51.1 64.8,53.2 64.8,30.8 69.0,28.7" fill="#b0767b"/><polygon points="60.6,51.1 64.8,53.2 64.8,30.8 60.6,28.7" fill="#e1979d"/><polygon points="60.6,30.1 73.2,36.4 69.0,38.5 56.4,32.2" fill="#ffb5bc"/><polygon points="73.2,42.0 69.0,44.1 69.0,38.5 73.2,36.4" fill="#b0767b"/><polygon points="56.4,37.8 69.0,44.1 69.0,38.5 56.4,32.2" fill="#e1979d"/><polygon points="31.2,51.1 35.4,53.2 31.2,55.3 27.0,53.2" fill="#ffb5bc"/><polygon points="35.4,58.8 31.2,60.9 31.2,55.3 35.4,53.2" fill="#b0767b"/><polygon points="27.0,58.8 31.2,60.9 31.2,55.3 27.0,53.2" fill="#e1979d"/><polygon points="24.9,54.9 29.1,57.0 24.9,59.1 20.7,57.0" fill="#2c3549"/><polygon points="29.1,62.7 24.9,64.8 24.9,59.1 29.1,57.0" fill="#1c2330"/><polygon points="20.7,62.7 24.9,64.8 24.9,59.1 20.7,57.0" fill="#242d3d"/><polygon points="48.0,67.9 56.4,72.1 48.0,76.3 39.6,72.1" fill="#ffb5bc"/><polygon points="56.4,83.3 48.0,87.5 48.0,76.3 56.4,72.1" fill="#b0767b"/><polygon points="39.6,83.3 48.0,87.5 48.0,76.3 39.6,72.1" fill="#e1979d"/><polygon points="35.4,51.8 48.0,58.1 35.4,64.4 22.8,58.1" fill="#ffffe3"/><polygon points="48.0,69.3 35.4,75.6 35.4,64.4 48.0,58.1" fill="#b7ac95"/><polygon points="22.8,69.3 35.4,75.6 35.4,64.4 22.8,58.1" fill="#eadcbe"/><polygon points="35.4,60.2 39.6,62.3 35.4,64.4 31.2,62.3" fill="#2c3549"/><polygon points="39.6,67.9 35.4,70.0 35.4,64.4 39.6,62.3" fill="#1c2330"/><polygon points="31.2,67.9 35.4,70.0 35.4,64.4 31.2,62.3" fill="#242d3d"/></svg>