<svg xmlns="http://www.w3.org/2000/svg" viewBox="0 0 96 96" shape-rendering="crispEdges"><polygon points="66.9,34.7 71.1,36.8 66.9,38.9 62.7,36.8" fill="#ffcf6f"/><polygon points="71.1,59.1 66.9,61.2 66.9,38.9 71.1,36.8" fill="#ac8848"/><polygon points="62.7,59.1 66.9,61.2 66.9,38.9 62.7,36.8" fill="#dbad5c"/><polygon points="39.6,21.7 43.8,23.8 39.6,25.9 35.4,23.8" fill="#ffcf6f"/><polygon points="43.8,29.4 39.6,31.5 39.6,25.9 43.8,23.8" fill="#ac8848"/><polygon points="35.4,29.4 39.6,31.5 39.6,25.9 35.4,23.8" fill="#dbad5c"/><polygon points="54.3,30.5 79.5,43.1 71.1,47.2 45.9,34.7" fill="#d7ffcc"/><polygon points="79.5,65.4 71.1,69.6 71.1,47.2 79.5,43.1" fill="#8dac85"/><polygon points="45.9,57.0 71.1,69.6 71.1,47.2 45.9,34.7" fill="#b4dbab"/><polygon points="31.2,35.7 39.6,39.9 31.2,44.1 22.8,39.9" fill="#ffffe3"/><polygon points="39.6,51.1 31.2,55.3 31.2,44.1 39.6,39.9" fill="#b7ac95"/><polygon points="22.8,51.1 31.2,55.3 31.2,44.1 22.8,39.9" fill="#eadcbe"/><polygon points="48.0,53.9 60.6,60.2 48.0,66.5 35.4,60.2" fill="#d7ffcc"/><polygon points="60.6,71.4 48.0,77.7 48.0,66.5 60.6,60.2" fill="#8dac85"/><polygon points="35.4,71.4 48.0,77.7 48.0,66.5 35.4,60.2" fill="#b4dbab"/><polygon points="48.0,24.5 69.0,35.0 48.0,45.5 27.0,35.0" fill="#8f8293"/><polygon points="69.0,63.0 48.0,73.5 48.0,45.5 69.0,35.0" fill="#5d5560"/><polygon points="27.0,63.0 48.0,73.5 48.0,45.5 27.0,35.0" fill="#776d7b"/><polygon points="24.9,50.8 29.1,52.8 24.9,54.9 20.7,52.8" fill="#d7ffcc"/><polygon points="29.1,58.5 24.9,60.6 24.9,54.9 29.1,52.8" fill="#8dac85"/><polygon points="20.7,58.5 24.9,60.6 24.9,54.9 20.7,52.8" fill="#b4dbab"/><polygon points="31.2,40.6 35.4,42.7 31.2,44.8 27.0,42.7" fill="#2c3549"/><polygon points="35.4,48.3 31.2,50.4 31.2,44.8 35.4,42.7" fill="#1c2330"/><polygon points="27.0,48.3 31.2,50.4 31.2,44.8 27.0,42.7" fill="#242d3d"/><polygon points="58.5,49.4 66.9,53.6 58.5,57.8 50.1,53.6" fill="#ffffe3"/><polygon points="66.9,64.8 58.5,69.0 58.5,57.8 66.9,53.6" fill="#b7ac95"/><polygon points="50.1,64.8 58.5,69.0 58.5,57.8 50.1,53.6" fill="#eadcbe"/><polygon points="41.7,45.9 45.9,48.0 41.7,50.1 37.5,48.0" fill="#2c3549"/><polygon points="45.9,53.6 41.7,55.7 41.7,50.1 45.9,48.0" fill="#1c2330"/><polygon points="37.5,53.6 41.7,55.7 41.7,50.1 37.5,48.0" fill="#242d3d"/></svg>