<svg xmlns="http://www.w3.org/2000/svg" viewBox="0 0 96 96" shape-rendering="crispEdges"><polygon points="41.7,14.4 54.3,20.7 50.1,22.8 37.5,16.5" fill="#ffffe3"/><polygon points="54.3,43.0 50.1,45.1 50.1,22.8 54.3,20.7" fill="#b7ac95"/><polygon points="37.5,38.9 50.1,45.1 50.1,22.8 37.5,16.5" fill="#eadcbe"/><polygon points="48.0,53.2 56.4,57.4 48.0,61.6 39.6,57.4" fill="#ffe97f"/><polygon points="56.4,68.6 48.0,72.8 48.0,61.6 56.4,57.4" fill="#af9853"/><polygon points="39.6,68.6 48.0,72.8 48.0,61.6 39.6,57.4" fill="#e0c36a"/><polygon points="64.8,28.0 73.2,32.2 64.8,36.4 56.4,32.2" fill="#ffe97f"/><polygon points="73.2,54.6 64.8,58.8 64.8,36.4 73.2,32.2" fill="#af9853"/><polygon points="56.4,54.6 64.8,58.8 64.8,36.4 56.4,32.2" fill="#e0c36a"/><polygon points="37.5,15.8 41.7,17.9 37.5,19.9 33.3,17.9" fill="#ffcf6f"/><polygon points="41.7,29.1 37.5,31.2 37.5,19.9 41.7,17.9" fill="#ac8848"/><polygon points="33.3,29.1 37.5,31.2 37.5,19.9 33.3,17.9" fill="#dbad5c"/><polygon points="54.3,32.6 75.3,43.1 50.1,55.7 29.1,45.2" fill="#eef3ff"/><polygon points="75.3,65.4 50.1,78.0 50.1,55.7 75.3,43.1" fill="#9c9fa9"/><polygon points="29.1,67.5 50.1,78.0 50.1,55.7 29.1,45.2" fill="#c7cbd9"/><polygon points="33.3,60.5 41.7,64.8 33.3,69.0 24.9,64.8" fill="#ffe97f"/><polygon points="41.7,76.0 33.3,80.2 33.3,69.0 41.7,64.8" fill="#af9853"/><polygon points="24.9,76.0 33.3,80.2 33.3,69.0 24.9,64.8" fill="#e0c36a"/><polygon points="62.7,60.5 71.1,64.8 62.7,69.0 54.3,64.8" fill="#ffe97f"/><polygon points="71.1,76.0 62.7,80.2 62.7,69.0 71.1,64.8" fill="#af9853"/><polygon points="54.3,76.0 62.7,80.2 62.7,69.0 54.3,64.8" fill="#e0c36a"/><polygon points="33.3,21.4 41.7,25.6 33.3,29.8 24.9,25.6" fill="#ffe97f"/><polygon points="41.7,36.8 33.3,41.0 33.3,29.8 41.7,25.6" fill="#af9853"/><polygon points="24.9,36.8 33.3,41.0 33.3,29.8 24.9,25.6" fill="#e0c36a"/><polygon points="69.0,28.0 81.6,34.3 77.4,36.4 64.8,30.1" fill="#ffffe3"/><polygon points="81.6,56.7 77.4,58.8 77.4,36.4 81.6,34.3" fill="#b7ac95"/><polygon points="64.8,52.5 77.4,58.8 77.4,36.4 64.8,30.1" fill="#eadcbe"/><polygon points="43.8,15.4 64.8,25.9 52.2,32.2 31.2,21.7" fill="#ffcf6f"/><polygon points="64.8,31.5 52.2,37.8 52.2,32.2 64.8,25.9" fill="#ac8848"/><polygon points="31.2,27.3 52.2,37.8 52.2,32.2 31.2,21.7" fill="#dbad5c"/><polygon points="58.5,31.2 62.7,33.2 58.5,35.4 54.3,33.2" fill="#ffcf6f"/><polygon points="62.7,38.9 58.5,41.0 58.5,35.4 62.7,33.2" fill="#ac8848"/><polygon points="54.3,38.9 58.5,41.0 58.5,35.4 54.3,33.2" fill="#dbad5c"/><polygon points="43.8,21.0 64.8,31.5 48.0,39.9 27.0,29.4" fill="#ffcf6f"/><polygon points="64.8,37.1 48.0,45.5 48.0,39.9 64.8,31.5" fill="#ac8848"/><polygon points="27.0,35.0 48.0,45.5 48.0,39.9 27.0,29.4" fill="#dbad5c"/><polygon points="45.9,19.9 50.1,22.1 45.9,24.1 41.7,22.1" fill="#ffcf6f"/><polygon points="50.1,33.2 45.9,35.4 45.9,24.1 50.1,22.1" fill="#ac8848"/><polygon points="41.7,33.2 45.9,35.4 45.9,24.1 41.7,22.1" fill="#dbad5c"/><polygon points="27.0,51.8 31.2,53.9 27.0,56.0 22.8,53.9" fill="#ffe97f"/><polygon points="31.2,59.5 27.0,61.6 27.0,56.0 31.2,53.9" fill="#af9853"/><polygon points="22.8,59.5 27.0,61.6 27.0,56.0 22.8,53.9" fill="#e0c36a"/><polygon points="37.5,29.8 58.5,40.2 41.7,48.6 20.7,38.1" fill="#eef3ff"/><polygon points="58.5,62.7 41.7,71.1 41.7,48.6 58.5,40.2" fill="#9c9fa9"/><polygon points="20.7,60.6 41.7,71.1 41.7,48.6 20.7,38.1" fill="#c7cbd9"/><polygon points="24.9,43.8 29.1,45.9 24.9,48.0 20.7,45.9" fill="#2c3549"/><polygon points="29.1,51.5 24.9,53.6 24.9,48.0 29.1,45.9" fill="#1c2330"/><polygon points="20.7,51.5 24.9,53.6 24.9,48.0 20.7,45.9" fill="#242d3d"/><polygon points="54.3,24.1 58.5,26.2 54.3,28.4 50.1,26.2" fill="#ffcf6f"/><polygon points="58.5,37.5 54.3,39.6 54.3,28.4 58.5,26.2" fill="#ac8848"/><polygon points="50.1,37.5 54.3,39.6 54.3,28.4 50.1,26.2" fill="#dbad5c"/><polygon points="48.0,67.9 56.4,72.1 48.0,76.3 39.6,72.1" fill="#ffe97f"/><polygon points="56.4,83.3 48.0,87.5 48.0,76.3 56.4,72.1" fill="#af9853"/><polygon points="39.6,83.3 48.0,87.5 48.0,76.3 39.6,72.1" fill="#e0c36a"/><polygon points="48.0,28.7 56.4,32.9 48.0,37.1 39.6,32.9" fill="#ffe97f"/><polygon points="56.4,44.1 48.0,48.3 48.0,37.1 56.4,32.9" fill="#af9853"/><polygon points="39.6,44.1 48.0,48.3 48.0,37.1 39.6,32.9" fill="#e0c36a"/><polygon points="35.4,49.0 39.6,51.1 35.4,53.2 31.2,51.1" fill="#2c3549"/><polygon points="39.6,56.7 35.4,58.8 35.4,53.2 39.6,51.1" fill="#1c2330"/><polygon points="31.2,56.7 35.4,58.8 35.4,53.2 31.2,51.1" fill="#242d3d"/></svg>