<svg xmlns="http://www.w3.org/2000/svg" viewBox="0 0 96 96" shape-rendering="crispEdges"><polygon points="48.0,53.2 56.4,57.4 48.0,61.6 39.6,57.4" fill="#8dcbe2"/><polygon points="56.4,68.6 48.0,72.8 48.0,61.6 56.4,57.4" fill="#5c8594"/><polygon points="39.6,68.6 48.0,72.8 48.0,61.6 39.6,57.4" fill="#76aabd"/><polygon points="64.8,28.0 73.2,32.2 64.8,36.4 56.4,32.2" fill="#8dcbe2"/><polygon points="73.2,54.6 64.8,58.8 64.8,36.4 73.2,32.2" fill="#5c8594"/><polygon points="56.4,54.6 64.8,58.8 64.8,36.4 56.4,32.2" fill="#76aabd"/><polygon points="45.9,22.1 54.3,26.3 50.1,28.4 41.7,24.2" fill="#ffcf6f"/><polygon points="54.3,31.9 50.1,34.0 50.1,28.4 54.3,26.3" fill="#ac8848"/><polygon points="41.7,29.8 50.1,34.0 50.1,28.4 41.7,24.2" fill="#dbad5c"/><polygon points="54.3,32.6 75.3,43.1 50.1,55.7 29.1,45.2" fill="#eec277"/><polygon points="75.3,65.4 50.1,78.0 50.1,55.7 75.3,43.1" fill="#9c7f4e"/><polygon points="29.1,67.5 50.1,78.0 50.1,55.7 29.1,45.2" fill="#c7a264"/><polygon points="33.3,60.5 41.7,64.8 33.3,69.0 24.9,64.8" fill="#8dcbe2"/><polygon points="41.7,76.0 33.3,80.2 33.3,69.0 41.7,64.8" fill="#5c8594"/><polygon points="24.9,76.0 33.3,80.2 33.3,69.0 24.9,64.8" fill="#76aabd"/><polygon points="62.7,60.5 71.1,64.8 62.7,69.0 54.3,64.8" fill="#8dcbe2"/><polygon points="71.1,76.0 62.7,80.2 62.7,69.0 71.1,64.8" fill="#5c8594"/><polygon points="54.3,76.0 62.7,80.2 62.7,69.0 54.3,64.8" fill="#76aabd"/><polygon points="33.3,21.4 41.7,25.6 33.3,29.8 24.9,25.6" fill="#8dcbe2"/><polygon points="41.7,36.8 33.3,41.0 33.3,29.8 41.7,25.6" fill="#5c8594"/><polygon points="24.9,36.8 33.3,41.0 33.3,29.8 24.9,25.6" fill="#76aabd"/><polygon points="48.0,18.9 69.0,29.4 52.2,37.8 31.2,27.3" fill="#ffcf6f"/><polygon points="69.0,35.0 52.2,43.4 52.2,37.8 69.0,29.4" fill="#ac8848"/><polygon points="31.2,32.9 52.2,43.4 52.2,37.8 31.2,27.3" fill="#dbad5c"/><polygon points="48.0,18.2 64.8,26.6 52.2,32.9 35.4,24.5" fill="#ffcf6f"/><polygon points="64.8,32.2 52.2,38.5 52.2,32.9 64.8,26.6" fill="#ac8848"/><polygon points="35.4,30.1 52.2,38.5 52.2,32.9 35.4,24.5" fill="#dbad5c"/><polygon points="50.1,18.6 58.5,22.8 50.1,27.0 41.7,22.8" fill="#ffcf6f"/><polygon points="58.5,28.4 50.1,32.6 50.1,27.0 58.5,22.8" fill="#ac8848"/><polygon points="41.7,28.4 50.1,32.6 50.1,27.0 41.7,22.8" fill="#dbad5c"/><polygon points="24.9,48.0 29.1,50.0 24.9,52.1 20.7,50.0" fill="#8dcbe2"/><polygon points="29.1,55.6 24.9,57.8 24.9,52.1 29.1,50.0" fill="#5c8594"/><polygon points="20.7,55.6 24.9,57.8 24.9,52.1 20.7,50.0" fill="#76aabd"/><polygon points="37.5,29.8 58.5,40.2 41.7,48.6 20.7,38.1" fill="#eec277"/><polygon points="58.5,62.7 41.7,71.1 41.7,48.6 58.5,40.2" fill="#9c7f4e"/><polygon points="20.7,60.6 41.7,71.1 41.7,48.6 20.7,38.1" fill="#c7a264"/><polygon points="24.9,43.8 29.1,45.9 24.9,48.0 20.7,45.9" fill="#2c3549"/><polygon points="29.1,51.5 24.9,53.6 24.9,48.0 29.1,45.9" fill="#1c2330"/><polygon points="20.7,51.5 24.9,53.6 24.9,48.0 20.7,45.9" fill="#242d3d"/><polygon points="48.0,67.9 56.4,72.1 48.0,76.3 39.6,72.1" fill="#8dcbe2"/><polygon points="56.4,83.3 48.0,87.5 48.0,76.3 56.4,72.1" fill="#5c8594"/><polygon points="39.6,83.3 48.0,87.5 48.0,76.3 39.6,72.1" fill="#76aabd"/><polygon points="48.0,28.7 56.4,32.9 48.0,37.1 39.6,32.9" fill="#8dcbe2"/><polygon points="56.4,44.1 48.0,48.3 48.0,37.1 56.4,32.9" fill="#5c8594"/><polygon points="39.6,44.1 48.0,48.3 48.0,37.1 39.6,32.9" fill="#76aabd"/><polygon points="35.4,49.0 39.6,51.1 35.4,53.2 31.2,51.1" fill="#2c3549"/><polygon points="39.6,56.7 35.4,58.8 35.4,53.2 39.6,51.1" fill="#1c2330"/><polygon points="31.2,56.7 35.4,58.8 35.4,53.2 31.2,51.1" fill="#242d3d"/></svg>